HIERARCHY
ROOT Hips
{
  OFFSET 0 0 0
  CHANNELS 6 Xposition Yposition Zposition Zrotation Xrotation Yrotation
  JOINT Spine
  {
    OFFSET 0 10.1816 0.131521
    CHANNELS 3 Zrotation Xrotation Yrotation
    JOINT Spine1
    {
      OFFSET 0 10.0835 -1.0008
      CHANNELS 3 Zrotation Xrotation Yrotation
      JOINT Spine2
      {
        OFFSET 0 9.10001 -1.37342
        CHANNELS 3 Zrotation Xrotation Yrotation
        JOINT Neck
        {
          OFFSET 0 16.6717 -2.51617
          CHANNELS 3 Zrotation Xrotation Yrotation
          JOINT Head
          {
            OFFSET 0 9.61788 1.68501
            CHANNELS 3 Zrotation Xrotation Yrotation
            End Site
            {
              OFFSET 0 0 0
            }
          }
        }
        JOINT LeftShoulder
        {
          OFFSET 4.57045 10.946 -2.62799
          CHANNELS 3 Zrotation Xrotation Yrotation
          JOINT LeftArm
          {
            OFFSET 10.5924 -0.524583 -2.23212
            CHANNELS 3 Zrotation Xrotation Yrotation
            JOINT LeftForeArm
            {
              OFFSET 27.8415 -8.94286e-05 3.74589e-05
              CHANNELS 3 Zrotation Xrotation Yrotation
              JOINT LeftHand
              {
                OFFSET 28.3288 -1.74407e-05 3.78045e-05
                CHANNELS 3 Zrotation Xrotation Yrotation
                End Site
                {
                  OFFSET 0 0 0
                }
              }
            }
          }
        }
        JOINT RightShoulder
        {
          OFFSET -4.56997 10.9462 -2.62802
          CHANNELS 3 Zrotation Xrotation Yrotation
          JOINT RightArm
          {
            OFFSET -10.5928 -0.524798 -2.2321
            CHANNELS 3 Zrotation Xrotation Yrotation
            JOINT RightForeArm
            {
              OFFSET -27.8415 -3.30792e-05 1.16763e-05
              CHANNELS 3 Zrotation Xrotation Yrotation
              JOINT RightHand
              {
                OFFSET -28.3288 0 5.5816e-05
                CHANNELS 3 Zrotation Xrotation Yrotation
                End Site
                {
                  OFFSET 0 0 0
                }
              }
            }
          }
        }
      }
    }
  }
  JOINT LeftUpLeg
  {
    OFFSET 8.20778 -6.75171 -1.59956
    CHANNELS 3 Zrotation Xrotation Yrotation
    JOINT LeftLeg
    {
      OFFSET 0 -44.3705 0.284643
      CHANNELS 3 Zrotation Xrotation Yrotation
      JOINT LeftFoot
      {
        OFFSET 0 -44.4279 -2.98219
        CHANNELS 3 Zrotation Xrotation Yrotation
        JOINT LeftToeBase
        {
          OFFSET 0 -8.72867 10.7106
          CHANNELS 3 Zrotation Xrotation Yrotation
          End Site
          {
            OFFSET 0 0 0
          }
        }
      }
    }
  }
  JOINT RightUpLeg
  {
    OFFSET -8.2078 -6.75166 -1.59956
    CHANNELS 3 Zrotation Xrotation Yrotation
    JOINT RightLeg
    {
      OFFSET 0 -44.3705 0.286156
      CHANNELS 3 Zrotation Xrotation Yrotation
      JOINT RightFoot
      {
        OFFSET 0 -44.4277 -2.98379
        CHANNELS 3 Zrotation Xrotation Yrotation
        JOINT RightToeBase
        {
          OFFSET 0 -8.72867 10.7106
          CHANNELS 3 Zrotation Xrotation Yrotation
          End Site
          {
            OFFSET 0 0 0
          }
        }
      }
    }
  }
}
MOTION
Frames:	13
Frame Time:	0.0333333
119.853 104.26 -21.2249 -1.94308 0.0863975 -2.92819 0.996808 2.16646 0.395234 0.714884 4.1997 0.687353 0.73051 4.21517 0.570104 4.39348e-005 -0.000479823 6.4272e-007 1.35431 -14.7732 8.37379 -8.29587 1.05258 -4.93725 -54.5178 32.5402 -2.22798 -0.134287 -0.683954 -24.642 -1.964 7.71495 1.27852 4.01495 2.01776 9.2307 60.0585 26.6259 -0.993126 0.260521 -1.10712 26.5063 4.23986 10.6116 -3.11918 8.16513 -1.43263 3.21376 -2.85732 9.28403 2.25639 -6.89695 -8.57433 0.550983 4.68781e-006 -8.79502e-007 0.00412433 -2.89182 -2.07801 -8.97602 4.31767 8.65521 2.96554 2.9613 -4.05203 -0.388349 -3.74985e-006 -4.57211e-007 0.00494128 
119.874 104.236 -21.2682 -1.77516 1.3153 -2.76557 0.968533 2.10184 0.441605 0.657271 4.06882 0.779204 0.672872 4.08432 0.661995 4.39348e-005 -0.000479823 6.4272e-007 1.43584 -14.9338 8.00946 -6.9833 1.59541 -4.69061 -54.7641 34.2246 -0.474462 -0.148689 -0.696298 -25.2334 -0.604799 6.01876 0.400917 3.07578 2.18775 9.24962 60.7008 30.0931 -2.52728 0.236758 -1.05819 25.2484 3.8139 10.6947 -3.14956 8.01645 -2.79813 3.09501 -2.84647 9.26085 2.41033 -6.87643 -8.48371 0.571648 -0.0175741 0.148699 0.00893436 -3.06061 -3.3636 -9.04453 4.35648 8.81418 2.92791 3.05497 -4.10551 -0.686924 -0.0638551 0.0270943 0.00494128 
119.949 104.198 -21.3975 -1.53516 3.09501 -2.72229 0.937915 1.97028 0.505777 0.595369 3.80352 0.904584 0.610932 3.81905 0.787449 4.39348e-005 -0.000479823 6.4272e-007 1.43968 -14.9221 7.56154 -5.16572 2.20164 -4.55035 -55.6726 35.7497 2.14445 -0.15412 -0.701184 -25.4422 1.12407 5.26417 -0.595819 1.46103 2.35612 9.20264 61.957 32.731 -5.43475 0.217859 -1.01719 24.2056 3.48992 11.0618 -3.2411 7.79832 -4.79079 3.17537 -2.83203 9.26362 2.63089 -6.82191 -8.3398 0.515751 -0.0445469 0.384941 0.0232338 -3.36441 -5.94605 -9.19325 4.3301 9.71613 2.91938 3.21392 -4.10198 -0.918396 -0.164002 0.0508804 0.00494128 
120.075 104.148 -21.6151 -1.24145 5.32393 -2.72007 0.89322 1.81206 0.519467 0.507174 3.48631 0.928395 0.522724 3.50185 0.811347 4.39348e-005 -0.000479823 6.4272e-007 1.46382 -15.0281 7.3359 -2.86562 3.11094 -4.24551 -57.641 36.1845 6.23244 -0.146589 -0.689952 -24.9887 2.30321 5.11727 -1.19531 -0.784724 2.78091 8.83118 63.6999 33.5449 -9.57989 0.197537 -0.97119 23.0447 3.14226 10.8932 -3.55512 7.54992 -7.3237 3.32382 -2.81492 9.30053 2.90369 -6.76762 -8.20147 0.403902 -0.0937916 0.919253 0.0493103 -3.7622 -8.88417 -9.32992 4.33842 10.5036 2.95508 3.40377 -3.99473 -1.22333 -0.274684 -0.00723871 0.00494128 
120.242 104.08 -21.934 -0.846727 7.80496 -2.80681 0.823896 1.69096 0.465697 0.371051 3.24517 0.818975 0.386625 3.26067 0.701992 4.39348e-005 -0.000479823 6.4272e-007 1.6043 -15.5858 7.47808 -0.479712 4.62319 -3.45191 -60.2056 35.3565 11.4821 -0.13347 -0.661183 -23.8817 2.38477 5.10195 -0.948637 -3.30373 3.83711 7.99887 64.9117 32.4453 -14.0991 0.17464 -0.915671 21.6563 2.78054 10.2136 -4.2018 7.3831 -10.4347 3.44766 -2.80119 9.79208 3.17953 -7.64798 -7.91917 0.288964 0.764659 1.31984 -0.0180809 -4.27708 -12.3109 -9.22407 4.37067 11.5315 3.02245 3.60391 -3.84642 -1.81028 -0.382273 -0.175006 0.0101165 
120.46 103.941 -22.4055 -0.294352 10.4192 -3.10571 0.729865 1.65426 0.381941 0.185158 3.174 0.652941 0.200775 3.18947 0.535974 4.39348e-005 -0.000479823 6.4272e-007 1.84645 -16.8277 7.97602 1.66215 6.79381 -2.09743 -62.9358 33.9394 17.2112 -0.118797 -0.627299 -22.5885 1.64047 5.04186 -0.255011 -5.92266 5.57839 6.7827 65.2575 29.9743 -18.3705 0.154019 -0.862729 20.3457 2.69073 9.00762 -5.12536 7.2007 -14.1052 3.66696 -2.78882 10.9719 3.50223 -9.02176 -7.79246 0.112237 1.47113 1.07809 -0.0863045 -4.93674 -16.508 -8.66315 4.38144 13.37 3.09945 3.7903 -3.86228 -2.79026 -0.468835 -0.478677 0.0255642 
120.733 103.636 -23.1043 0.355253 12.8898 -3.59793 0.620009 1.78321 0.307931 -0.0338446 3.43362 0.512821 -0.0181847 3.44904 0.395785 4.39348e-005 -0.000479823 6.4272e-007 2.2348 -19.1123 8.6993 3.75545 9.51073 -0.31503 -66.1134 32.3193 22.8357 -0.113384 -0.614612 -22.1077 0.909478 4.67875 0.220476 -8.81033 7.77123 5.22361 65.5118 26.6424 -22.2602 0.147951 -0.846084 19.936 2.9063 6.34756 -6.18454 6.9818 -18.447 3.98598 -2.77207 13.5885 3.96221 -10.4252 -8.34449 -0.341683 0.99144 -0.168719 -0.0818733 -5.66562 -21.3595 -7.6714 4.38016 16.4403 3.16626 3.9391 -4.21092 -4.09643 -0.493573 -1.06228 0.0542543 
121.003 103.028 -24.0947 0.939546 14.8112 -4.0352 0.497164 2.19053 0.25415 -0.281122 4.24931 0.424959 -0.265423 4.26471 0.307695 4.39348e-005 -0.000479823 6.4272e-007 2.9477 -22.7966 9.54531 6.05945 12.4575 1.57741 -69.9315 30.4471 27.9788 -0.129213 -0.652637 -23.5563 1.06759 3.66136 0.0469063 -11.8195 9.92411 3.24291 66.6111 23.0899 -25.9375 0.17031 -0.905841 21.411 2.69626 2.06926 -6.9465 7.11661 -23.5303 4.54249 -2.76297 18.4343 4.55776 -12.8742 -9.44641 -1.61718 0.932448 -2.15095 -0.155342 -6.49323 -27.0326 -7.01969 4.3954 21.5853 3.16361 3.9907 -4.68933 -5.16211 -0.421101 -2.43725 0.119049 
121.228 101.921 -25.403 1.18373 16.3003 -4.11625 0.406485 2.86316 0.20887 -0.465879 5.59561 0.36504 -0.450132 5.611 0.247399 4.39348e-005 -0.000479823 6.4272e-007 3.93627 -27.8259 10.516 8.60547 14.8348 3.07828 -74.1887 27.7696 32.2096 -0.164374 -0.728012 -26.4737 2.23651 2.72985 -0.513086 -14.3834 11.4525 1.11798 68.7528 19.127 -29.5393 0.233439 -1.0531 25.1144 1.30898 -1.79252 -7.26093 7.74991 -29.5713 5.1802 -2.85174 25.5179 5.41724 -14.4733 -11.1002 -3.84294 0.420884 -3.78566 -0.223673 -7.56313 -33.4508 -7.56437 4.67612 28.722 2.99024 3.84344 -5.03269 -5.46541 -0.298688 -4.73475 0.233911 
121.424 100.088 -26.9274 0.923103 17.8925 -3.84725 0.420846 3.59498 0.18225 -0.441354 7.05999 0.340488 -0.425555 7.07537 0.222443 4.39348e-005 -0.000479823 6.4272e-007 4.70511 -33.3893 11.425 10.8014 15.8054 3.70226 -78.0251 23.5928 34.6738 -0.197713 -0.79175 -29.0014 3.80168 2.07873 -0.790684 -15.725 12.2439 -0.352215 71.0407 14.1038 -32.3772 0.335847 -1.24866 30.2174 -0.940849 -4.79207 -7.68912 8.95519 -37.0444 5.69834 -3.14926 34.585 6.45356 -14.1829 -12.3689 -6.43204 1.13319 -5.0197 -0.281558 -8.73762 -40.9803 -8.91545 4.99642 37.4254 2.7376 4.12851 -5.31818 -5.52032 -0.884307 -8.26542 0.328043 
121.609 97.6016 -28.3346 0.275853 19.3794 -3.57281 0.53095 4.2241 0.18231 -0.225576 8.31844 0.357744 -0.209733 8.33381 0.23935 4.39348e-005 -0.000479823 6.4272e-007 4.99987 -38.4055 12.1111 10.8731 15.4278 3.23778 -79.567 17.777 34.3943 -0.228046 -0.844467 -31.1387 5.86634 -0.080351 -0.992657 -14.7508 12.157 -0.379487 71.9517 8.47061 -33.054 0.461437 -1.44301 35.5653 -3.06479 -7.5094 -8.09955 10.2761 -44.0575 6.30702 -3.56276 43.2724 7.47986 -11.4654 -14.2918 -8.00009 2.83039 -5.60508 -0.285943 -9.6953 -48.3668 -10.1741 5.46646 46.0156 2.30837 4.3435 -5.91861 -5.93874 -0.798749 -11.0171 0.457446 
121.737 94.8755 -29.2656 -0.504949 19.8964 -3.52 0.635927 4.74789 0.212168 -0.0215239 9.36516 0.428969 -0.00565677 9.38056 0.310283 4.39348e-005 -0.000479823 6.4272e-007 5.38126 -41.6977 12.5253 8.28412 13.7944 1.41524 -78.2993 11.7552 31.1111 -0.291185 -0.941457 -35.2024 9.26696 -4.1895 -1.74692 -11.4721 10.6615 1.42024 71.3614 3.82477 -30.2421 0.607674 -1.62841 41.0253 -5.29132 -9.48342 -7.65066 11.4897 -48.7172 7.16334 -4.10107 50.5903 8.35202 -9.16312 -18.0975 -7.83721 1.768 -5.3489 -0.332103 -9.92851 -53.2273 -11.0246 6.09618 53.1817 1.60265 3.3901 -8.83992 -6.64249 -0.0623866 -10.623 0.542269 
121.746 92.2502 -29.6687 -1.13813 18.7022 -3.63677 0.673779 5.2072 0.30381 0.0422801 10.2804 0.626543 0.0581377 10.2959 0.507609 4.39348e-005 -0.000479823 6.4272e-007 5.72801 -42.3648 12.3045 4.2285 10.5591 -1.70369 -74.6412 8.1053 24.5749 -0.41917 -1.10104 -42.385 14.3319 -8.40029 -3.09294 -6.88806 7.83747 4.80608 69.6217 0.950856 -23.3394 0.788906 -1.81597 47.0562 -8.30749 -10.8846 -6.24815 12.1875 -50.8363 6.98077 -4.83742 57.1918 8.97242 -9.04402 -22.559 -6.57251 0.474589 -4.6567 -0.258934 -9.35287 -55.3593 -11.1528 6.9065 59.5324 0.510992 1.19685 -13.0552 -7.74621 1.55616 -8.6995 0.619817 
